<svg width="204" height="70" viewBox="0 0 204 70" fill="none" xmlns="http://www.w3.org/2000/svg">
<path d="M85.3386 22.162H81.0779C81.0591 23.4624 81.2833 24.5856 81.7506 25.5313C82.2179 26.4771 82.8438 27.2554 83.6287 27.8662C84.4324 28.4771 85.3478 28.9204 86.3758 29.1962C87.4221 29.4918 88.4969 29.6396 89.5993 29.6396C90.9636 29.6396 92.1594 29.4721 93.1873 29.1371C94.2337 28.8022 95.1027 28.3391 95.7942 27.748C96.5042 27.1372 97.0368 26.418 97.392 25.5904C97.7472 24.7629 97.9246 23.8664 97.9246 22.9009C97.9246 21.7187 97.6815 20.7532 97.1958 20.0044C96.7285 19.236 96.1678 18.6252 95.5139 18.172C94.86 17.7188 94.1964 17.3937 93.5237 17.1967C92.8698 16.9799 92.3556 16.8322 91.982 16.7533C90.7298 16.4184 89.7115 16.1425 88.9266 15.9258C88.1605 15.709 87.5531 15.4923 87.1046 15.2756C86.6749 15.0588 86.385 14.8224 86.2356 14.5662C86.0862 14.3101 86.0113 13.9751 86.0113 13.5613C86.0113 13.1082 86.1047 12.7338 86.2917 12.4382C86.4787 12.1427 86.7121 11.8964 86.9924 11.6993C87.2916 11.5023 87.6183 11.3644 87.9735 11.2856C88.3287 11.2067 88.6835 11.1673 89.0387 11.1673C89.5805 11.1673 90.0759 11.2166 90.5244 11.3151C90.9917 11.4136 91.4025 11.5811 91.7577 11.8176C92.1129 12.054 92.3932 12.3791 92.5987 12.7929C92.8229 13.2067 92.9538 13.7288 92.9911 14.3593H97.2518C97.2518 13.1377 97.0276 12.1033 96.5791 11.256C96.1494 10.389 95.5607 9.67972 94.8131 9.128C94.0655 8.57628 93.2061 8.18222 92.2343 7.94578C91.2812 7.68961 90.2813 7.56155 89.2349 7.56155C88.3379 7.56155 87.4409 7.68961 86.5439 7.94578C85.6469 8.20194 84.8433 8.596 84.1333 9.128C83.4233 9.66 82.8438 10.3299 82.3953 11.1378C81.9656 11.9259 81.7506 12.8618 81.7506 13.9456C81.7506 14.911 81.9188 15.7386 82.2552 16.4282C82.6104 17.0982 83.0681 17.6597 83.6287 18.1129C84.1893 18.5661 84.8248 18.9404 85.5348 19.236C86.2448 19.5118 86.9736 19.7483 87.7212 19.9453C88.4501 20.1621 89.1696 20.3591 89.8796 20.5364C90.5896 20.7138 91.2251 20.9207 91.7858 21.1571C92.3464 21.3936 92.7949 21.6891 93.1313 22.0438C93.4864 22.3984 93.6638 22.8615 93.6638 23.4329C93.6638 23.9649 93.5329 24.4082 93.2714 24.7629C93.0099 25.0978 92.6828 25.3638 92.2903 25.5609C91.8979 25.7579 91.4774 25.8958 91.0289 25.9747C90.5804 26.0338 90.16 26.0633 89.7675 26.0633C89.1881 26.0633 88.6275 25.9944 88.0857 25.8564C87.5438 25.6988 87.0673 25.4722 86.6561 25.1767C86.2636 24.8614 85.9461 24.4575 85.703 23.9649C85.4599 23.4723 85.3386 22.8713 85.3386 22.162ZM106.149 8.064V29.1667H110.27V14.3593H110.326L115.231 29.1667H118.623L123.528 14.2116H123.585V29.1667H127.705V8.064H121.51L117.081 22.5758H117.025L112.344 8.064H106.149ZM142.232 21.0093L144.839 13.2658H144.895L147.418 21.0093H142.232ZM142.652 8.064L135.084 29.1667H139.513L141.083 24.4673H148.567L150.081 29.1667H154.65L147.165 8.064H142.652ZM166.383 17.6104V11.6698H171.204C172.213 11.6698 172.97 11.9062 173.474 12.3791C173.979 12.8323 174.231 13.5712 174.231 14.5958C174.231 15.6598 173.979 16.4282 173.474 16.9011C172.97 17.374 172.213 17.6104 171.204 17.6104H166.383ZM161.982 8.064V29.1667H166.383V20.9207H170.783C171.886 20.9207 172.68 21.1768 173.166 21.6891C173.652 22.2014 173.97 23.0093 174.119 24.1127C174.231 24.9599 174.315 25.8466 174.371 26.7727C174.427 27.6987 174.577 28.4967 174.82 29.1667H179.221C179.015 28.8711 178.856 28.5164 178.744 28.1027C178.651 27.6692 178.576 27.216 178.52 26.7431C178.483 26.2702 178.455 25.8072 178.436 25.354C178.417 24.9008 178.399 24.5067 178.38 24.1718C178.343 23.6398 178.268 23.1078 178.156 22.5758C178.062 22.0438 177.903 21.561 177.679 21.1276C177.455 20.6744 177.165 20.2902 176.81 19.9749C176.455 19.6399 176.006 19.3936 175.465 19.236V19.1769C176.586 18.704 177.39 18.0144 177.875 17.108C178.38 16.2016 178.632 15.1278 178.632 13.8864C178.632 13.0786 178.492 12.3298 178.212 11.6402C177.95 10.9309 177.558 10.3102 177.034 9.77822C176.53 9.24622 175.913 8.83244 175.184 8.53689C174.474 8.22161 173.671 8.064 172.774 8.064H161.982ZM191.754 11.9653V29.1667H196.155V11.9653H202.153V8.064H185.755V11.9653H191.754ZM98.151 48.4797H100.183C100.043 47.3037 99.7046 46.2642 99.1668 45.3612C98.649 44.4582 97.9917 43.7022 97.195 43.0932C96.4183 42.4632 95.5419 41.9907 94.566 41.6757C93.61 41.3607 92.6241 41.2032 91.6084 41.2032C89.9353 41.2032 88.4615 41.5287 87.1868 42.1797C85.932 42.8097 84.8864 43.6707 84.0499 44.7627C83.2134 45.8337 82.586 47.0727 82.1678 48.4797C81.7495 49.8867 81.5404 51.3672 81.5404 52.9212C81.5404 54.4752 81.7495 55.9557 82.1678 57.3627C82.586 58.7697 83.2134 60.0087 84.0499 61.0797C84.8864 62.1507 85.932 63.0117 87.1868 63.6627C88.4615 64.2927 89.9353 64.6077 91.6084 64.6077C92.8631 64.6077 93.9984 64.3977 95.0141 63.9777C96.0498 63.5577 96.9461 62.9592 97.7029 62.1822C98.4598 61.4052 99.0772 60.4602 99.5552 59.3472C100.033 58.2342 100.342 56.9847 100.481 55.5987H98.4498C98.3502 56.6067 98.1212 57.5517 97.7627 58.4337C97.4042 59.2947 96.9361 60.0507 96.3585 60.7017C95.7809 61.3527 95.0938 61.8672 94.2971 62.2452C93.5005 62.6232 92.6042 62.8122 91.6084 62.8122C90.1943 62.8122 88.9793 62.5287 87.9636 61.9617C86.9478 61.3947 86.1113 60.6492 85.454 59.7252C84.8167 58.7802 84.3387 57.7197 84.02 56.5437C83.7213 55.3467 83.5719 54.1392 83.5719 52.9212C83.5719 51.6822 83.7213 50.4747 84.02 49.2987C84.3387 48.1227 84.8167 47.0727 85.454 46.1487C86.1113 45.2037 86.9478 44.4477 87.9636 43.8807C88.9793 43.3137 90.1943 43.0302 91.6084 43.0302C92.3851 43.0302 93.122 43.1562 93.8191 43.4082C94.5361 43.6392 95.1834 43.9857 95.761 44.4477C96.3585 44.9097 96.8564 45.4872 97.2548 46.1802C97.673 46.8522 97.9718 47.6187 98.151 48.4797ZM106.609 55.3467L110.881 43.8177L115.004 55.3467H106.609ZM109.835 41.6757L101.261 64.1667H103.412L105.981 57.1737H115.691L118.29 64.1667H120.471L112.106 41.6757H109.835ZM125.337 41.6757L132.418 61.3947L139.767 41.6757H142.754V64.1667H140.723V44.7312H140.663L133.374 64.1667H131.462L124.441 44.7312H124.381V64.1667H122.35V41.6757H125.337ZM148.977 52.7007V43.5027H155.968C157.382 43.5027 158.527 43.8807 159.404 44.6367C160.28 45.3927 160.718 46.5477 160.718 48.1017C160.718 49.6557 160.28 50.8107 159.404 51.5667C158.527 52.3227 157.382 52.7007 155.968 52.7007H148.977ZM146.946 41.6757V64.1667H148.977V54.5277H156.416C157.372 54.5277 158.238 54.3912 159.015 54.1182C159.792 53.8242 160.459 53.4042 161.017 52.8582C161.574 52.2912 162.003 51.6087 162.301 50.8107C162.6 50.0127 162.75 49.1097 162.75 48.1017C162.75 47.0937 162.6 46.1907 162.301 45.3927C162.003 44.5947 161.574 43.9227 161.017 43.3767C160.459 42.8097 159.792 42.3897 159.015 42.1167C158.238 41.8227 157.372 41.6757 156.416 41.6757H146.946ZM165.555 41.6757V56.0712C165.555 57.2262 165.704 58.3287 166.003 59.3787C166.321 60.4077 166.809 61.3107 167.467 62.0877C168.144 62.8647 169 63.4842 170.036 63.9462C171.091 64.3872 172.356 64.6077 173.83 64.6077C175.324 64.6077 176.588 64.3872 177.624 63.9462C178.68 63.4842 179.536 62.8647 180.193 62.0877C180.871 61.3107 181.359 60.4077 181.657 59.3787C181.976 58.3287 182.135 57.2262 182.135 56.0712V41.6757H180.104V55.5987C180.104 56.9007 179.964 58.0137 179.686 58.9377C179.407 59.8407 178.998 60.5862 178.461 61.1742C177.923 61.7412 177.266 62.1612 176.489 62.4342C175.712 62.6862 174.826 62.8122 173.83 62.8122C172.854 62.8122 171.978 62.6862 171.201 62.4342C170.424 62.1612 169.767 61.7412 169.229 61.1742C168.691 60.5862 168.283 59.8407 168.004 58.9377C167.725 58.0137 167.586 56.9007 167.586 55.5987V41.6757H165.555ZM187.171 56.7642H185.14C185.08 58.1502 185.249 59.3367 185.648 60.3237C186.066 61.3107 186.653 62.1192 187.41 62.7492C188.167 63.3792 189.083 63.8517 190.159 64.1667C191.234 64.4607 192.4 64.6077 193.654 64.6077C194.909 64.6077 195.985 64.4817 196.881 64.2297C197.777 63.9987 198.524 63.6942 199.121 63.3162C199.739 62.9172 200.217 62.4762 200.555 61.9932C200.914 61.5102 201.183 61.0377 201.362 60.5757C201.561 60.0927 201.681 59.6412 201.721 59.2212C201.78 58.8012 201.81 58.4652 201.81 58.2132C201.81 57.2892 201.661 56.5017 201.362 55.8507C201.083 55.1997 200.685 54.6537 200.167 54.2127C199.669 53.7507 199.082 53.3727 198.404 53.0787C197.747 52.7637 197.04 52.5012 196.283 52.2912L191.085 50.9367C190.647 50.8317 190.229 50.6952 189.83 50.5272C189.452 50.3592 189.113 50.1387 188.814 49.8657C188.516 49.5927 188.277 49.2672 188.097 48.8892C187.938 48.4902 187.858 48.0282 187.858 47.5032C187.858 46.6632 188.008 45.9597 188.307 45.3927C188.605 44.8257 188.994 44.3742 189.472 44.0382C189.97 43.6812 190.537 43.4292 191.175 43.2822C191.832 43.1142 192.509 43.0302 193.206 43.0302C193.963 43.0302 194.68 43.1457 195.357 43.3767C196.054 43.5867 196.662 43.9122 197.18 44.3532C197.717 44.7732 198.146 45.3087 198.464 45.9597C198.803 46.5897 198.992 47.3352 199.032 48.1962H201.063C201.063 47.0412 200.844 46.0332 200.406 45.1722C199.988 44.2902 199.42 43.5552 198.703 42.9672C197.986 42.3792 197.15 41.9382 196.194 41.6442C195.238 41.3502 194.232 41.2032 193.176 41.2032C191.682 41.2032 190.458 41.4342 189.502 41.8962C188.546 42.3372 187.789 42.8832 187.231 43.5342C186.693 44.1852 186.325 44.8782 186.126 45.6132C185.927 46.3482 185.827 46.9887 185.827 47.5347C185.827 48.4167 185.956 49.1622 186.215 49.7712C186.494 50.3802 186.853 50.8947 187.291 51.3147C187.729 51.7347 188.237 52.0707 188.814 52.3227C189.412 52.5747 190.019 52.7847 190.637 52.9527L195.387 54.1812C195.885 54.3072 196.393 54.4752 196.911 54.6852C197.429 54.8742 197.897 55.1262 198.315 55.4412C198.753 55.7562 199.102 56.1447 199.36 56.6067C199.639 57.0687 199.779 57.6147 199.779 58.2447C199.779 59.0637 199.589 59.7672 199.211 60.3552C198.833 60.9222 198.355 61.3947 197.777 61.7727C197.219 62.1297 196.612 62.3922 195.955 62.5602C195.297 62.7282 194.69 62.8122 194.132 62.8122C193.156 62.8122 192.24 62.7177 191.384 62.5287C190.527 62.3187 189.78 61.9827 189.143 61.5207C188.526 61.0587 188.038 60.4392 187.679 59.6622C187.321 58.8852 187.151 57.9192 187.171 56.7642Z" fill="white"/>
<path d="M30.6867 68.5611C22.4618 68.4833 14.7532 65.0222 8.99947 58.8778C3.17194 52.7333 0 44.5667 0 35.8944C0 27.2222 3.17194 19.0556 8.96259 12.9111C14.7532 6.76667 22.4618 3.30555 30.6867 3.22778L30.7236 5.79445C15.1221 5.95 2.43428 19.4833 2.43428 35.8944C2.43428 52.3056 15.1221 65.8389 30.6867 65.9944V68.5611Z" fill="url(#paint0_linear_6_9)"/>
<path d="M42.3418 29.3611H27.6992C27.0353 29.3611 26.4821 28.7778 26.4821 28.0778C26.4821 27.3778 27.0353 26.7945 27.6992 26.7945H41.1246V13.1444C41.1246 12.4444 41.6779 11.8611 42.3418 11.8611C43.0057 11.8611 43.5589 12.4444 43.5589 13.1444V28.0778C43.5589 28.7778 43.0057 29.3611 42.3418 29.3611Z" fill="url(#paint1_linear_6_9)"/>
<path d="M56.5418 35.2722H23.2363C22.5724 35.2722 22.0192 34.6889 22.0192 33.9889C22.0192 33.2889 22.5724 32.7056 23.2363 32.7056H55.3246V27.9222C55.3246 27.2222 55.8779 26.6389 56.5418 26.6389C57.2057 26.6389 57.7589 27.2222 57.7589 27.9222V33.9889C57.7589 34.7278 57.2426 35.2722 56.5418 35.2722Z" fill="url(#paint2_linear_6_9)"/>
<path d="M55.6566 41.2222H22.5724C21.9085 41.2222 21.3553 40.6389 21.3553 39.9389C21.3553 39.2389 21.9085 38.6556 22.5724 38.6556H55.6566C56.3205 38.6556 56.8737 39.2389 56.8737 39.9389C56.8737 40.6778 56.3205 41.2222 55.6566 41.2222Z" fill="url(#paint3_linear_6_9)"/>
<path d="M48.9439 55.8055H43.9646C43.3007 55.8055 42.7475 55.2222 42.7475 54.5222V47.4444H27.3672C26.7033 47.4444 26.1501 46.8611 26.1501 46.1611C26.1501 45.4611 26.7033 44.8778 27.3672 44.8778H43.9646C44.6285 44.8778 45.1818 45.4611 45.1818 46.1611V53.2389H48.9439C49.6077 53.2389 50.161 53.8222 50.161 54.5222C50.161 55.2222 49.6077 55.8055 48.9439 55.8055Z" fill="url(#paint4_linear_6_9)"/>
<path d="M33.5636 67.1222C33.5636 67.9778 32.8997 68.6778 32.0883 68.6778C31.2769 68.6778 30.613 67.9778 30.613 67.1222C30.613 66.2667 31.2769 65.5667 32.0883 65.5667C32.8997 65.5667 33.5636 66.2667 33.5636 67.1222Z" fill="url(#paint5_linear_6_9)"/>
<path d="M32.0883 70C30.613 70 29.3958 68.7167 29.3958 67.1611C29.3958 65.6056 30.613 64.3222 32.0883 64.3222C33.5636 64.3222 34.7807 65.6056 34.7807 67.1611C34.7807 68.7167 33.5636 70 32.0883 70ZM32.0883 66.85C31.9407 66.85 31.8301 66.9667 31.8301 67.1222C31.8301 67.2778 31.9407 67.3945 32.0883 67.3945C32.2358 67.3945 32.3465 67.2778 32.3465 67.1222C32.3465 66.9667 32.2358 66.85 32.0883 66.85Z" fill="url(#paint6_linear_6_9)"/>
<path d="M33.5636 4.39445C33.5636 5.25001 32.8997 5.95 32.0883 5.95C31.2769 5.95 30.613 5.25001 30.613 4.39445C30.613 3.53889 31.2769 2.83889 32.0883 2.83889C32.8997 2.83889 33.5636 3.53889 33.5636 4.39445Z" fill="url(#paint7_linear_6_9)"/>
<path d="M32.0883 7.27222C30.613 7.27222 29.3958 5.98889 29.3958 4.43333C29.3958 2.83889 30.613 1.55556 32.0883 1.55556C33.5636 1.55556 34.7807 2.83889 34.7807 4.39445C34.7807 5.98889 33.5636 7.27222 32.0883 7.27222ZM32.0883 4.12222C31.9407 4.12222 31.8301 4.23889 31.8301 4.39445C31.8301 4.55 31.9407 4.66667 32.0883 4.66667C32.2358 4.66667 32.3465 4.55 32.3465 4.39445C32.3465 4.23889 32.2358 4.12222 32.0883 4.12222Z" fill="url(#paint8_linear_6_9)"/>
<path d="M15.454 43.2444C14.9008 43.2444 14.2738 43.1278 13.573 42.8944C9.77402 41.4944 6.04883 36.3611 5.64311 33.7556C5.49558 32.7444 4.83168 32.4722 3.20882 31.9667C2.65557 31.8111 2.06544 31.6167 1.5122 31.3444C0.885183 31.0722 0.627002 30.2944 0.885183 29.6722C1.14336 29.0111 1.88103 28.7389 2.47116 29.0111C2.87687 29.2056 3.35635 29.3611 3.87272 29.5167C5.4587 29.9833 7.59791 30.6444 8.04051 33.3278C8.29869 35 11.4338 39.3944 14.3844 40.4833C15.5647 40.9111 16.1917 40.6 16.5605 40.2889C16.4867 39.6278 15.3434 37.9167 14.6057 36.9056C13.0935 34.6889 11.7657 32.7444 12.2821 31.0333C12.4296 30.4889 12.8722 29.7889 13.9418 29.4389C15.5647 28.8944 16.5974 28.9722 17.2613 29.0111C17.8883 29.05 18.0727 29.05 19.253 27.1056C20.8758 24.4222 23.9371 23.6833 26.1501 23.1778C26.9615 22.9833 28.1418 22.7111 28.4737 22.4389C28.4369 21.7389 27.7361 20.7667 26.7402 20.1056C25.7444 19.4056 24.1953 18.9 22.9044 19.5222C20.3226 20.7667 18.0727 19.8722 17.2613 18.3944C16.708 17.3833 16.7449 15.8667 18.1465 14.7389C19.1054 14 19.6956 12.7944 19.7693 12.25C19.6587 12.25 19.4374 12.25 19.1054 12.3278C17.0031 12.7556 14.7901 12.5611 13.0197 11.8222C12.3927 11.55 12.0976 10.8111 12.3558 10.15C12.614 9.48889 13.3148 9.17778 13.9418 9.45C15.2696 10.0333 17.0031 10.15 18.5891 9.83889C20.8389 9.37223 21.6872 10.4222 21.9823 11.1222C22.7569 12.9889 21.0971 15.6333 19.5849 16.8389C19.4005 16.9944 19.3267 17.1111 19.3267 17.15C19.3267 17.15 19.4005 17.3056 19.6587 17.4222C19.88 17.5389 20.6545 17.8111 21.8717 17.2278C23.7158 16.3333 26.0395 16.6444 28.0311 18.0056C29.8015 19.2111 30.8711 20.9611 30.8711 22.5556C30.8711 24.7722 28.6213 25.2778 26.6665 25.7444C24.6379 26.2111 22.388 26.7556 21.2815 28.5833C19.5849 31.3444 18.7366 31.7722 17.0769 31.6556C16.4867 31.6167 15.8597 31.5778 14.6795 31.9667C14.6426 31.9667 14.6057 32.0056 14.6057 32.0056C14.6795 32.7056 15.8966 34.4944 16.5974 35.5056C18.294 37.9944 20.0644 40.5611 18.2571 42.2722C17.6301 42.7 16.708 43.2444 15.454 43.2444Z" fill="url(#paint9_linear_6_9)"/>
<path d="M13.241 62.4167C12.9828 62.4167 12.7246 62.3389 12.5033 62.1445C11.2493 61.1334 9.18385 58.3722 10.5116 55.1056C11.4706 52.6945 12.9828 51.5667 14.1999 50.6722C14.7901 50.2445 15.2696 49.8945 15.6384 49.4278C16.0441 48.9611 16.3392 48.0667 16.6342 47.25C17.1875 45.6167 17.9251 43.5945 19.8062 43.5167C21.2446 43.4778 22.2405 44.8 23.4207 46.3167C24.5272 47.7556 25.7812 49.4278 27.4779 50.0889C28.1049 50.3222 28.8794 50.4 29.6171 50.4778C30.576 50.5556 31.6088 50.6333 32.4202 51.1778C33.0103 51.5278 33.1947 52.3056 32.8628 52.9278C32.5308 53.55 31.7932 53.7445 31.2031 53.3945C30.8711 53.1611 30.1334 53.1222 29.4327 53.0445C28.5844 52.9667 27.5885 52.8889 26.6296 52.5389C24.3059 51.6445 22.7568 49.6222 21.5028 47.9889C20.9864 47.2889 20.175 46.2389 19.8431 46.1611C19.5849 46.1611 19.1054 47.6 18.8841 48.2222C18.5153 49.2722 18.1464 50.4 17.4457 51.2167C16.8924 51.9167 16.1916 52.3833 15.5646 52.8889C14.4581 53.7056 13.4254 54.4833 12.7246 56.2333C11.8394 58.4889 13.9418 60.2 13.9418 60.2389C14.495 60.6667 14.5688 61.4833 14.1631 62.0278C13.9418 62.2611 13.6098 62.4167 13.241 62.4167Z" fill="url(#paint10_linear_6_9)"/>
<path d="M24.933 14.7389C24.2691 14.7389 23.7158 14.1556 23.7158 13.4556V9.25555C23.7158 8.55555 24.2691 7.97222 24.933 7.97222C25.5969 7.97222 26.1501 8.55555 26.1501 9.25555V13.4556C26.1501 14.1556 25.5969 14.7389 24.933 14.7389Z" fill="url(#paint11_linear_6_9)"/>
<path d="M28.4 16.6444C27.7361 16.6444 27.1828 16.0611 27.1828 15.3611V9.25555C27.1828 8.55555 27.7361 7.97222 28.4 7.97222C29.0639 7.97222 29.6171 8.55555 29.6171 9.25555V15.3611C29.6171 16.1 29.0639 16.6444 28.4 16.6444Z" fill="url(#paint12_linear_6_9)"/>
<path d="M32.0145 19.95C31.3506 19.95 30.7974 19.3667 30.7974 18.6667V9.25555C30.7974 8.55555 31.3506 7.97222 32.0145 7.97222C32.6784 7.97222 33.2317 8.55555 33.2317 9.25555V18.6667C33.2317 19.3667 32.6784 19.95 32.0145 19.95Z" fill="url(#paint13_linear_6_9)"/>
<path d="M29.8016 57.3611H24.0109C23.347 57.3611 22.7937 56.7778 22.7937 56.0778C22.7937 55.3778 23.347 54.7944 24.0109 54.7944H29.8016C30.4655 54.7944 31.0187 55.3778 31.0187 56.0778C31.0187 56.7778 30.4655 57.3611 29.8016 57.3611Z" fill="url(#paint14_linear_6_9)"/>
<path d="M32.7153 60.7834H27.8836C27.2197 60.7834 26.6665 60.2 26.6665 59.5C26.6665 58.8 27.2197 58.2167 27.8836 58.2167H32.7153C33.3792 58.2167 33.9324 58.8 33.9324 59.5C33.9324 60.2 33.3792 60.7834 32.7153 60.7834Z" fill="url(#paint15_linear_6_9)"/>
<path d="M29.4696 64.1667H24.6379C23.974 64.1667 23.4208 63.5833 23.4208 62.8833C23.4208 62.1833 23.974 61.6 24.6379 61.6H29.4696C30.1335 61.6 30.6867 62.1833 30.6867 62.8833C30.6867 63.6222 30.1335 64.1667 29.4696 64.1667Z" fill="url(#paint16_linear_6_9)"/>
<path d="M42.3787 13.4556C40.5345 13.4556 39.0592 11.9 39.0592 9.95556C39.0592 8.01111 40.5345 6.45556 42.3787 6.45556C44.2228 6.45556 45.6981 8.01111 45.6981 9.95556C45.6981 11.9 44.2228 13.4556 42.3787 13.4556ZM42.3787 8.71111C41.7148 8.71111 41.1615 9.29445 41.1615 9.99445C41.1615 10.6944 41.7148 11.2778 42.3787 11.2778C43.0426 11.2778 43.5958 10.6944 43.5958 9.99445C43.5958 9.25556 43.0426 8.71111 42.3787 8.71111Z" fill="url(#paint17_linear_6_9)"/>
<path d="M56.5786 27.9222C54.7345 27.9222 53.2592 26.3667 53.2592 24.4222C53.2592 22.4778 54.7345 20.9222 56.5786 20.9222C58.4228 20.9222 59.8981 22.4778 59.8981 24.4222C59.8981 26.3667 58.4228 27.9222 56.5786 27.9222ZM56.5786 23.1389C55.9148 23.1389 55.3615 23.7222 55.3615 24.4222C55.3615 25.1222 55.9148 25.7056 56.5786 25.7056C57.2425 25.7056 57.7958 25.1222 57.7958 24.4222C57.7958 23.7222 57.2425 23.1389 56.5786 23.1389Z" fill="url(#paint18_linear_6_9)"/>
<path d="M58.1277 43.5555C56.2836 43.5555 54.8083 42 54.8083 40.0556C54.8083 38.1111 56.2836 36.5556 58.1277 36.5556C59.9719 36.5556 61.4472 38.1111 61.4472 40.0556C61.4472 42 59.9719 43.5555 58.1277 43.5555ZM58.1277 38.8111C57.4638 38.8111 56.9106 39.3944 56.9106 40.0944C56.9106 40.7944 57.4638 41.3778 58.1277 41.3778C58.7916 41.3778 59.3449 40.7944 59.3449 40.0944C59.3449 39.3556 58.7916 38.8111 58.1277 38.8111Z" fill="url(#paint19_linear_6_9)"/>
<path d="M51.4888 57.8278C49.6446 57.8278 48.1693 56.2722 48.1693 54.3278C48.1693 52.3833 49.6446 50.8278 51.4888 50.8278C53.3329 50.8278 54.8083 52.3833 54.8083 54.3278C54.8083 56.2722 53.2961 57.8278 51.4888 57.8278ZM51.4888 53.0444C50.8249 53.0444 50.2716 53.6278 50.2716 54.3278C50.2716 55.0278 50.8249 55.6111 51.4888 55.6111C52.1527 55.6111 52.7059 55.0278 52.7059 54.3278C52.7059 53.6278 52.1527 53.0444 51.4888 53.0444Z" fill="url(#paint20_linear_6_9)"/>
<defs>
<linearGradient id="paint0_linear_6_9" x1="15.3471" y1="69.5022" x2="15.3471" y2="-3.65952" gradientUnits="userSpaceOnUse">
<stop stop-color="#2C4D8D"/>
<stop offset="0.0582673" stop-color="#335A99"/>
<stop offset="0.2815" stop-color="#4C86C2"/>
<stop offset="0.4816" stop-color="#5EA6E0"/>
<stop offset="0.6496" stop-color="#69B9F2"/>
<stop offset="0.7649" stop-color="#6DC0F9"/>
<stop offset="0.7718" stop-color="#6EC2F9"/>
<stop offset="0.8589" stop-color="#7CDCFB"/>
<stop offset="0.9376" stop-color="#84ECFD"/>
<stop offset="1" stop-color="#87F1FD"/>
</linearGradient>
<linearGradient id="paint1_linear_6_9" x1="35.0247" y1="69.5019" x2="35.0247" y2="-3.65968" gradientUnits="userSpaceOnUse">
<stop stop-color="#2C4D8D"/>
<stop offset="0.0582673" stop-color="#335A99"/>
<stop offset="0.2815" stop-color="#4C86C2"/>
<stop offset="0.4816" stop-color="#5EA6E0"/>
<stop offset="0.6496" stop-color="#69B9F2"/>
<stop offset="0.7649" stop-color="#6DC0F9"/>
<stop offset="0.7718" stop-color="#6EC2F9"/>
<stop offset="0.8589" stop-color="#7CDCFB"/>
<stop offset="0.9376" stop-color="#84ECFD"/>
<stop offset="1" stop-color="#87F1FD"/>
</linearGradient>
<linearGradient id="paint2_linear_6_9" x1="39.895" y1="69.5022" x2="39.895" y2="-3.65987" gradientUnits="userSpaceOnUse">
<stop stop-color="#2C4D8D"/>
<stop offset="0.0582673" stop-color="#335A99"/>
<stop offset="0.2815" stop-color="#4C86C2"/>
<stop offset="0.4816" stop-color="#5EA6E0"/>
<stop offset="0.6496" stop-color="#69B9F2"/>
<stop offset="0.7649" stop-color="#6DC0F9"/>
<stop offset="0.7718" stop-color="#6EC2F9"/>
<stop offset="0.8589" stop-color="#7CDCFB"/>
<stop offset="0.9376" stop-color="#84ECFD"/>
<stop offset="1" stop-color="#87F1FD"/>
</linearGradient>
<linearGradient id="paint3_linear_6_9" x1="39.1141" y1="69.5019" x2="39.1141" y2="-3.65958" gradientUnits="userSpaceOnUse">
<stop stop-color="#2C4D8D"/>
<stop offset="0.0582673" stop-color="#335A99"/>
<stop offset="0.2815" stop-color="#4C86C2"/>
<stop offset="0.4816" stop-color="#5EA6E0"/>
<stop offset="0.6496" stop-color="#69B9F2"/>
<stop offset="0.7649" stop-color="#6DC0F9"/>
<stop offset="0.7718" stop-color="#6EC2F9"/>
<stop offset="0.8589" stop-color="#7CDCFB"/>
<stop offset="0.9376" stop-color="#84ECFD"/>
<stop offset="1" stop-color="#87F1FD"/>
</linearGradient>
<linearGradient id="paint4_linear_6_9" x1="38.1526" y1="69.5018" x2="38.1526" y2="-3.65959" gradientUnits="userSpaceOnUse">
<stop stop-color="#2C4D8D"/>
<stop offset="0.0582673" stop-color="#335A99"/>
<stop offset="0.2815" stop-color="#4C86C2"/>
<stop offset="0.4816" stop-color="#5EA6E0"/>
<stop offset="0.6496" stop-color="#69B9F2"/>
<stop offset="0.7649" stop-color="#6DC0F9"/>
<stop offset="0.7718" stop-color="#6EC2F9"/>
<stop offset="0.8589" stop-color="#7CDCFB"/>
<stop offset="0.9376" stop-color="#84ECFD"/>
<stop offset="1" stop-color="#87F1FD"/>
</linearGradient>
<linearGradient id="paint5_linear_6_9" x1="32.0878" y1="69.5022" x2="32.0878" y2="-3.65926" gradientUnits="userSpaceOnUse">
<stop stop-color="#2C4D8D"/>
<stop offset="0.0582673" stop-color="#335A99"/>
<stop offset="0.2815" stop-color="#4C86C2"/>
<stop offset="0.4816" stop-color="#5EA6E0"/>
<stop offset="0.6496" stop-color="#69B9F2"/>
<stop offset="0.7649" stop-color="#6DC0F9"/>
<stop offset="0.7718" stop-color="#6EC2F9"/>
<stop offset="0.8589" stop-color="#7CDCFB"/>
<stop offset="0.9376" stop-color="#84ECFD"/>
<stop offset="1" stop-color="#87F1FD"/>
</linearGradient>
<linearGradient id="paint6_linear_6_9" x1="32.0877" y1="69.5022" x2="32.0877" y2="-3.65966" gradientUnits="userSpaceOnUse">
<stop stop-color="#2C4D8D"/>
<stop offset="0.0582673" stop-color="#335A99"/>
<stop offset="0.2815" stop-color="#4C86C2"/>
<stop offset="0.4816" stop-color="#5EA6E0"/>
<stop offset="0.6496" stop-color="#69B9F2"/>
<stop offset="0.7649" stop-color="#6DC0F9"/>
<stop offset="0.7718" stop-color="#6EC2F9"/>
<stop offset="0.8589" stop-color="#7CDCFB"/>
<stop offset="0.9376" stop-color="#84ECFD"/>
<stop offset="1" stop-color="#87F1FD"/>
</linearGradient>
<linearGradient id="paint7_linear_6_9" x1="32.0878" y1="69.5015" x2="32.0878" y2="-3.65979" gradientUnits="userSpaceOnUse">
<stop stop-color="#2C4D8D"/>
<stop offset="0.0582673" stop-color="#335A99"/>
<stop offset="0.2815" stop-color="#4C86C2"/>
<stop offset="0.4816" stop-color="#5EA6E0"/>
<stop offset="0.6496" stop-color="#69B9F2"/>
<stop offset="0.7649" stop-color="#6DC0F9"/>
<stop offset="0.7718" stop-color="#6EC2F9"/>
<stop offset="0.8589" stop-color="#7CDCFB"/>
<stop offset="0.9376" stop-color="#84ECFD"/>
<stop offset="1" stop-color="#87F1FD"/>
</linearGradient>
<linearGradient id="paint8_linear_6_9" x1="32.0877" y1="69.5022" x2="32.0877" y2="-3.65952" gradientUnits="userSpaceOnUse">
<stop stop-color="#2C4D8D"/>
<stop offset="0.0582673" stop-color="#335A99"/>
<stop offset="0.2815" stop-color="#4C86C2"/>
<stop offset="0.4816" stop-color="#5EA6E0"/>
<stop offset="0.6496" stop-color="#69B9F2"/>
<stop offset="0.7649" stop-color="#6DC0F9"/>
<stop offset="0.7718" stop-color="#6EC2F9"/>
<stop offset="0.8589" stop-color="#7CDCFB"/>
<stop offset="0.9376" stop-color="#84ECFD"/>
<stop offset="1" stop-color="#87F1FD"/>
</linearGradient>
<linearGradient id="paint9_linear_6_9" x1="15.8315" y1="69.5022" x2="15.8315" y2="-3.6597" gradientUnits="userSpaceOnUse">
<stop stop-color="#2C4D8D"/>
<stop offset="0.0582673" stop-color="#335A99"/>
<stop offset="0.2815" stop-color="#4C86C2"/>
<stop offset="0.4816" stop-color="#5EA6E0"/>
<stop offset="0.6496" stop-color="#69B9F2"/>
<stop offset="0.7649" stop-color="#6DC0F9"/>
<stop offset="0.7718" stop-color="#6EC2F9"/>
<stop offset="0.8589" stop-color="#7CDCFB"/>
<stop offset="0.9376" stop-color="#84ECFD"/>
<stop offset="1" stop-color="#87F1FD"/>
</linearGradient>
<linearGradient id="paint10_linear_6_9" x1="21.5564" y1="69.5022" x2="21.5564" y2="-3.65963" gradientUnits="userSpaceOnUse">
<stop stop-color="#2C4D8D"/>
<stop offset="0.0582673" stop-color="#335A99"/>
<stop offset="0.2815" stop-color="#4C86C2"/>
<stop offset="0.4816" stop-color="#5EA6E0"/>
<stop offset="0.6496" stop-color="#69B9F2"/>
<stop offset="0.7649" stop-color="#6DC0F9"/>
<stop offset="0.7718" stop-color="#6EC2F9"/>
<stop offset="0.8589" stop-color="#7CDCFB"/>
<stop offset="0.9376" stop-color="#84ECFD"/>
<stop offset="1" stop-color="#87F1FD"/>
</linearGradient>
<linearGradient id="paint11_linear_6_9" x1="24.9381" y1="69.5019" x2="24.9381" y2="-3.65965" gradientUnits="userSpaceOnUse">
<stop stop-color="#2C4D8D"/>
<stop offset="0.0582673" stop-color="#335A99"/>
<stop offset="0.2815" stop-color="#4C86C2"/>
<stop offset="0.4816" stop-color="#5EA6E0"/>
<stop offset="0.6496" stop-color="#69B9F2"/>
<stop offset="0.7649" stop-color="#6DC0F9"/>
<stop offset="0.7718" stop-color="#6EC2F9"/>
<stop offset="0.8589" stop-color="#7CDCFB"/>
<stop offset="0.9376" stop-color="#84ECFD"/>
<stop offset="1" stop-color="#87F1FD"/>
</linearGradient>
<linearGradient id="paint12_linear_6_9" x1="28.3887" y1="69.5018" x2="28.3887" y2="-3.65968" gradientUnits="userSpaceOnUse">
<stop stop-color="#2C4D8D"/>
<stop offset="0.0582673" stop-color="#335A99"/>
<stop offset="0.2815" stop-color="#4C86C2"/>
<stop offset="0.4816" stop-color="#5EA6E0"/>
<stop offset="0.6496" stop-color="#69B9F2"/>
<stop offset="0.7649" stop-color="#6DC0F9"/>
<stop offset="0.7718" stop-color="#6EC2F9"/>
<stop offset="0.8589" stop-color="#7CDCFB"/>
<stop offset="0.9376" stop-color="#84ECFD"/>
<stop offset="1" stop-color="#87F1FD"/>
</linearGradient>
<linearGradient id="paint13_linear_6_9" x1="32.0049" y1="69.5019" x2="32.0049" y2="-3.65972" gradientUnits="userSpaceOnUse">
<stop stop-color="#2C4D8D"/>
<stop offset="0.0582673" stop-color="#335A99"/>
<stop offset="0.2815" stop-color="#4C86C2"/>
<stop offset="0.4816" stop-color="#5EA6E0"/>
<stop offset="0.6496" stop-color="#69B9F2"/>
<stop offset="0.7649" stop-color="#6DC0F9"/>
<stop offset="0.7718" stop-color="#6EC2F9"/>
<stop offset="0.8589" stop-color="#7CDCFB"/>
<stop offset="0.9376" stop-color="#84ECFD"/>
<stop offset="1" stop-color="#87F1FD"/>
</linearGradient>
<linearGradient id="paint14_linear_6_9" x1="26.9072" y1="69.5022" x2="26.9072" y2="-3.66046" gradientUnits="userSpaceOnUse">
<stop stop-color="#2C4D8D"/>
<stop offset="0.0582673" stop-color="#335A99"/>
<stop offset="0.2815" stop-color="#4C86C2"/>
<stop offset="0.4816" stop-color="#5EA6E0"/>
<stop offset="0.6496" stop-color="#69B9F2"/>
<stop offset="0.7649" stop-color="#6DC0F9"/>
<stop offset="0.7718" stop-color="#6EC2F9"/>
<stop offset="0.8589" stop-color="#7CDCFB"/>
<stop offset="0.9376" stop-color="#84ECFD"/>
<stop offset="1" stop-color="#87F1FD"/>
</linearGradient>
<linearGradient id="paint15_linear_6_9" x1="30.2856" y1="69.5019" x2="30.2856" y2="-3.65979" gradientUnits="userSpaceOnUse">
<stop stop-color="#2C4D8D"/>
<stop offset="0.0582673" stop-color="#335A99"/>
<stop offset="0.2815" stop-color="#4C86C2"/>
<stop offset="0.4816" stop-color="#5EA6E0"/>
<stop offset="0.6496" stop-color="#69B9F2"/>
<stop offset="0.7649" stop-color="#6DC0F9"/>
<stop offset="0.7718" stop-color="#6EC2F9"/>
<stop offset="0.8589" stop-color="#7CDCFB"/>
<stop offset="0.9376" stop-color="#84ECFD"/>
<stop offset="1" stop-color="#87F1FD"/>
</linearGradient>
<linearGradient id="paint16_linear_6_9" x1="27.0398" y1="69.5022" x2="27.0398" y2="-3.66059" gradientUnits="userSpaceOnUse">
<stop stop-color="#2C4D8D"/>
<stop offset="0.0582673" stop-color="#335A99"/>
<stop offset="0.2815" stop-color="#4C86C2"/>
<stop offset="0.4816" stop-color="#5EA6E0"/>
<stop offset="0.6496" stop-color="#69B9F2"/>
<stop offset="0.7649" stop-color="#6DC0F9"/>
<stop offset="0.7718" stop-color="#6EC2F9"/>
<stop offset="0.8589" stop-color="#7CDCFB"/>
<stop offset="0.9376" stop-color="#84ECFD"/>
<stop offset="1" stop-color="#87F1FD"/>
</linearGradient>
<linearGradient id="paint17_linear_6_9" x1="42.3923" y1="69.5022" x2="42.3923" y2="-3.66003" gradientUnits="userSpaceOnUse">
<stop stop-color="white"/>
<stop offset="0.0582673" stop-color="#335A99"/>
<stop offset="0.2815" stop-color="#4C86C2"/>
<stop offset="0.4816" stop-color="#5EA6E0"/>
<stop offset="0.6496" stop-color="#69B9F2"/>
<stop offset="0.7649" stop-color="#6DC0F9"/>
<stop offset="0.7718" stop-color="#6EC2F9"/>
<stop offset="0.8589" stop-color="#7CDCFB"/>
<stop offset="0.9376" stop-color="#84ECFD"/>
<stop offset="1" stop-color="#87F1FD"/>
</linearGradient>
<linearGradient id="paint18_linear_6_9" x1="56.5927" y1="69.5022" x2="56.5927" y2="-3.66009" gradientUnits="userSpaceOnUse">
<stop stop-color="#2C4D8D"/>
<stop offset="0.0582673" stop-color="#335A99"/>
<stop offset="0.2815" stop-color="#4C86C2"/>
<stop offset="0.4816" stop-color="#5EA6E0"/>
<stop offset="0.6496" stop-color="#69B9F2"/>
<stop offset="0.7649" stop-color="#6DC0F9"/>
<stop offset="0.7718" stop-color="#6EC2F9"/>
<stop offset="0.8589" stop-color="#7CDCFB"/>
<stop offset="0.9376" stop-color="#84ECFD"/>
<stop offset="1" stop-color="#87F1FD"/>
</linearGradient>
<linearGradient id="paint19_linear_6_9" x1="58.1395" y1="69.5022" x2="58.1395" y2="-3.66006" gradientUnits="userSpaceOnUse">
<stop stop-color="white"/>
<stop offset="0.0582673" stop-color="#335A99"/>
<stop offset="0.2815" stop-color="#4C86C2"/>
<stop offset="0.4816" stop-color="#5EA6E0"/>
<stop offset="0.6496" stop-color="#69B9F2"/>
<stop offset="0.7649" stop-color="#6DC0F9"/>
<stop offset="0.7718" stop-color="#6EC2F9"/>
<stop offset="0.8589" stop-color="#7CDCFB"/>
<stop offset="0.9376" stop-color="#84ECFD"/>
<stop offset="1" stop-color="#87F1FD"/>
</linearGradient>
<linearGradient id="paint20_linear_6_9" x1="51.4788" y1="69.5022" x2="51.4788" y2="-3.66006" gradientUnits="userSpaceOnUse">
<stop stop-color="white"/>
<stop offset="0.0582673" stop-color="#335A99"/>
<stop offset="0.2815" stop-color="#4C86C2"/>
<stop offset="0.4816" stop-color="#5EA6E0"/>
<stop offset="0.6496" stop-color="#69B9F2"/>
<stop offset="0.7649" stop-color="#6DC0F9"/>
<stop offset="0.7718" stop-color="#6EC2F9"/>
<stop offset="0.8589" stop-color="#7CDCFB"/>
<stop offset="0.9376" stop-color="#84ECFD"/>
<stop offset="1" stop-color="#87F1FD"/>
</linearGradient>
</defs>
</svg>
